<svg xmlns="http://www.w3.org/2000/svg" viewBox="0 0 512 512">
  <rect width="512" height="512" rx="15%" fill="#4361ee"/>
  <path d="M373.5 175.5h-81c-9.9 0-18 8.1-18 18v162c0 9.9 8.1 18 18 18h81c9.9 0 18-8.1 18-18v-162c0-9.9-8.1-18-18-18zm-9 171h-63v-144h63v144zM175.5 148.5h-45v-18h45v18zm0 36h-27v-18h27v18zm0 36h-27v-18h27v18zm0 36h-27v-18h27v18zm0 36h-27v-18h27v18zm0 36h-27v-18h27v18zm63-180h-45v-18h45v18zm0 36h-45v-18h45v18zm0 36h-45v-18h45v18zm0 36h-45v-18h45v18zm0 36h-45v-18h45v18zm0 36h-45v-18h45v18zm-153-216v216h144v-216h-45v-18h-54v18h-45z" fill="white"/>
</svg>